<?xml version="1.0" encoding="UTF-8"?>
<svg version="1.1" xmlns="http://www.w3.org/2000/svg" width="225" height="225">
<path d="M0 0 C74.25 0 148.5 0 225 0 C225 74.25 225 148.5 225 225 C150.75 225 76.5 225 0 225 C0 150.75 0 76.5 0 0 Z " fill="#FDFDFD" transform="translate(0,0)"/>
<path d="M0 0 C74.25 0 148.5 0 225 0 C225 22.44 225 44.88 225 68 C223.68 66.35 222.36 64.7 221 63 C216.22547918 58.94889143 211.9851992 58.85140063 205.9349823 58.85282898 C205.10360774 58.84915229 204.27223318 58.8454756 203.41566545 58.8416875 C200.61979616 58.83064261 197.82396402 58.82680548 195.02807617 58.82299805 C193.02754091 58.81673408 191.02700681 58.81008734 189.026474 58.80308533 C183.58427763 58.78567126 178.14209006 58.77512277 172.69987273 58.7668798 C169.3012036 58.76173122 165.90253721 58.75565547 162.50387001 58.74936867 C151.87427278 58.73031671 141.2446825 58.71608475 130.61507148 58.7077567 C118.33714017 58.69797881 106.05938888 58.67164482 93.78152102 58.63125581 C84.29609338 58.60112121 74.81071742 58.58629041 65.32524282 58.58297569 C59.65763162 58.58062247 53.99021275 58.57162645 48.32265282 58.54651451 C42.99156133 58.52327488 37.66078938 58.51898407 32.32966042 58.52927589 C30.37291019 58.52977234 28.41614446 58.52342 26.45944214 58.50971985 C23.78789966 58.49206097 21.11751139 58.49907726 18.44596863 58.51225281 C17.67173858 58.50128356 16.89750854 58.49031432 16.09981698 58.47901267 C10.89298927 58.54100612 7.97609712 59.66675486 4 63 C2.68 64.65 1.36 66.3 0 68 C0 45.56 0 23.12 0 0 Z " fill="#FEFEFE" transform="translate(0,0)"/>
<path d="M0 0 C6.32797933 6.61561476 9.94997973 13.47635803 9.8125 22.6875 C9.80347656 23.47769531 9.79445312 24.26789063 9.78515625 25.08203125 C9.77355469 25.67371094 9.76195312 26.26539063 9.75 26.875 C10.348125 27.1225 10.94625 27.37 11.5625 27.625 C14.27445881 29.17469075 15.2185245 30.12152232 16.75 32.875 C17.1990032 35.9353319 17.17023413 38.97003285 17.1484375 42.05859375 C17.15130768 42.95111343 17.15417786 43.84363312 17.15713501 44.76319885 C17.15917409 46.64853551 17.15365512 48.53389341 17.14111328 50.41918945 C17.12507617 53.29882368 17.14095734 56.17705036 17.16015625 59.05664062 C17.15817342 60.89062809 17.15432892 62.72461468 17.1484375 64.55859375 C17.15451019 65.41706406 17.16058289 66.27553436 17.1668396 67.16001892 C17.11213852 71.83136884 16.96773977 75.21353655 13.75 78.875 C8.31891002 82.84106441 2.40767971 82.29267966 -4.03515625 82.23828125 C-5.16900253 82.23877975 -6.30284882 82.23927826 -7.47105408 82.23979187 C-9.86231239 82.23745643 -12.2535734 82.22775927 -14.64477539 82.21118164 C-18.30312077 82.18756056 -21.96073819 82.19062873 -25.61914062 82.19726562 C-27.94531684 82.19168943 -30.27148999 82.18457991 -32.59765625 82.17578125 C-33.69046402 82.17669266 -34.78327179 82.17760406 -35.90919495 82.17854309 C-36.93053024 82.16901108 -37.95186554 82.15947906 -39.00415039 82.1496582 C-39.89872452 82.14505081 -40.79329865 82.14044342 -41.71498108 82.13569641 C-45.3223352 81.76472314 -48.19128569 80.74465819 -51 78.4375 C-53.14506506 75.75616867 -53.38250597 73.16858219 -53.44287109 69.8659668 C-53.45893402 69.06470871 -53.47499695 68.26345062 -53.49154663 67.43791199 C-53.53619054 63.77901239 -53.57705502 60.1202901 -53.60009766 56.46118164 C-53.61665413 54.53397544 -53.64394018 52.60683057 -53.68212891 50.67993164 C-53.73701444 47.89437161 -53.75878814 45.11024732 -53.7734375 42.32421875 C-53.79610687 41.46777267 -53.81877625 40.6113266 -53.84213257 39.72892761 C-53.82711317 35.4565455 -53.55384373 32.69282595 -50.84228516 29.28442383 C-48.25 26.875 -48.25 26.875 -46.25 26.875 C-46.31960937 26.22015625 -46.38921875 25.5653125 -46.4609375 24.890625 C-46.94950574 16.65476047 -44.94888347 10.65260764 -40.25 3.875 C-28.68690518 -8.35936062 -13.66690433 -8.93605283 0 0 Z " fill="#0C0C0C" transform="translate(201.25,85.125)"/>
<path d="M0 0 C0.83393784 -0.0055344 1.66787567 -0.01106879 2.52708435 -0.0167709 C5.31393477 -0.03035481 8.0998861 -0.01542061 10.88671875 -0.00050354 C12.88769918 -0.00428754 14.88867699 -0.00978824 16.88964844 -0.01687622 C22.31938631 -0.0308375 27.74880754 -0.01965618 33.17852783 -0.00316501 C38.86120858 0.01068603 44.54387096 0.00422535 50.2265625 0.0007019 C59.76958315 -0.00200017 69.31247803 0.01147521 78.85546875 0.03465271 C89.88795675 0.06126237 100.92023444 0.0630095 111.95274353 0.05126435 C122.56634206 0.04048453 133.17986454 0.04667526 143.79345703 0.06081963 C148.31007689 0.06657764 152.82664105 0.06649818 157.34326172 0.06175423 C162.66207865 0.05698136 167.98066534 0.06709916 173.29943848 0.08870888 C175.25133488 0.09427266 177.20325342 0.09474579 179.15515137 0.08975601 C181.81983544 0.08379844 184.48381672 0.09631737 187.1484375 0.11352539 C187.92062119 0.10751535 188.69280487 0.1015053 189.48838806 0.09531313 C194.25908763 0.15132472 197.52489912 0.97080403 201.57421875 3.50120544 C206.22801816 8.65811831 206.73268023 11.94733552 206.7421875 18.71995544 C206.7455159 19.53363586 206.7488443 20.34731628 206.75227356 21.18565369 C206.7573395 22.90720555 206.75968199 24.62876723 206.75952148 26.35032654 C206.76170998 28.99062667 206.77987442 31.63051042 206.79882812 34.27073669 C206.80176166 35.94130818 206.80374672 37.61188165 206.8046875 39.28245544 C206.81187302 40.0751886 206.81905853 40.86792175 206.82646179 41.68467712 C206.80304557 47.27237863 206.80304557 47.27237863 204.57421875 49.50120544 C202.44921875 49.12620544 202.44921875 49.12620544 200.57421875 48.50120544 C200.56487305 47.43160583 200.55552734 46.36200623 200.54589844 45.25999451 C200.50598363 41.28626574 200.44022154 37.31331001 200.36669922 33.34007263 C200.33849808 31.62142376 200.31727921 29.90264539 200.30322266 28.18382263 C200.28178042 25.71081797 200.23512719 23.23936869 200.18359375 20.76683044 C200.18175079 19.61661407 200.18175079 19.61661407 200.17987061 18.44316101 C200.09166684 15.2205252 199.90741643 12.98375643 198.05294132 10.29802704 C194.59897543 7.79425329 191.47599097 7.94628915 187.36875916 7.99327087 C186.53441347 7.98703091 185.70006779 7.98079095 184.8404389 7.9743619 C182.04039382 7.95838739 179.24121389 7.97105337 176.44116211 7.98362732 C174.43560782 7.97820822 172.43005751 7.97108676 170.42451477 7.96238708 C164.97421182 7.9441268 159.52421119 7.95123219 154.07390285 7.96390343 C148.37645436 7.97401565 142.67903212 7.96464283 136.98158264 7.95835876 C127.41402528 7.95107777 117.84659136 7.96068258 108.27905273 7.97972107 C97.20788276 8.00149682 86.13700733 7.99443505 75.06584448 7.97241545 C65.5693792 7.95428177 56.07300274 7.95169299 46.57652575 7.96217012 C40.9006734 7.96841543 35.22495965 7.96921208 29.54911613 7.95602417 C24.2146909 7.94449566 18.88064668 7.9524365 13.54626274 7.9756012 C11.58504368 7.98090408 9.62379271 7.97934768 7.66258621 7.97055054 C4.99218498 7.95967377 2.32301664 7.97326247 -0.3473053 7.99327087 C-1.12959175 7.98434799 -1.9118782 7.9754251 -2.7178703 7.96623182 C-6.99929306 8.01569838 -6.99929306 8.01569838 -10.40603542 10.39584446 C-11.57208252 12.80325815 -11.81736673 14.42887796 -11.84570312 17.09861755 C-11.86161499 18.00313156 -11.87752686 18.90764557 -11.8939209 19.83956909 C-11.89422302 21.29436424 -11.89422302 21.29436424 -11.89453125 22.77854919 C-11.90214478 23.7820491 -11.9097583 24.78554901 -11.91760254 25.81945801 C-11.92840019 27.94015517 -11.93125801 30.06090549 -11.92675781 32.18162537 C-11.92578571 35.42382102 -11.96740759 38.66364847 -12.01171875 41.90550232 C-12.01692601 43.96734635 -12.01961394 46.02919859 -12.01953125 48.09104919 C-12.03592651 49.0588884 -12.05232178 50.0267276 -12.06921387 51.02389526 C-12.05990845 51.93156143 -12.05060303 52.8392276 -12.04101562 53.7743988 C-12.04409729 54.96542458 -12.04409729 54.96542458 -12.04724121 56.18051147 C-11.02891179 59.98321978 -9.67045174 61.24218284 -6.42578125 63.50120544 C-2.35496485 64.25182695 1.67022868 64.19108698 5.80004883 64.16062927 C7.03948242 64.17111298 8.27891602 64.18159668 9.5559082 64.19239807 C12.94644934 64.21623498 16.33565801 64.21807899 19.72618318 64.21010423 C23.27235869 64.20697677 26.81833333 64.23202039 30.36442566 64.25405884 C37.07562112 64.29149627 43.78661395 64.30364662 50.49790353 64.30668324 C58.14005142 64.31137443 65.78199638 64.34429957 73.42405474 64.37958109 C89.14076145 64.45150956 104.85734633 64.48803135 120.57421875 64.50120544 C120.95640642 66.15735202 121.28816977 67.82577569 121.57421875 69.50120544 C119.905421 71.1700032 117.89054314 70.63797792 115.59700012 70.64837646 C114.51887054 70.65553177 113.44074097 70.66268707 112.3299408 70.6700592 C111.13671707 70.67274811 109.94349335 70.67543701 108.71411133 70.6782074 C107.46539246 70.68477859 106.21667358 70.69134979 104.93011475 70.69812012 C101.4939178 70.71449456 98.05778272 70.72608997 94.62156129 70.73432565 C92.47486964 70.73947202 90.32818234 70.74554804 88.18149376 70.75183678 C81.46564171 70.77089967 74.74980071 70.78512627 68.03392678 70.79344875 C60.28098833 70.80321455 52.5283359 70.82951195 44.77549821 70.86994964 C38.78477322 70.90012364 32.79413011 70.91491898 26.8033306 70.91822976 C23.2248608 70.92057959 19.64669616 70.92953 16.06830788 70.95469093 C12.07245576 70.98233126 8.07724049 70.97813666 4.08129883 70.97117615 C2.89819626 70.98398621 1.71509369 70.99679626 0.49613953 71.00999451 C-5.78199234 70.97008144 -9.68008592 70.77457671 -14.42578125 66.50120544 C-17.69529085 62.780729 -18.54589841 59.64479718 -18.6027832 54.75779724 C-18.61561844 53.79637314 -18.62845367 52.83494904 -18.64167786 51.84439087 C-18.64906479 50.80688187 -18.65645172 49.76937286 -18.6640625 48.70042419 C-18.67213425 47.63129288 -18.68020599 46.56216156 -18.68852234 45.46063232 C-18.70235716 43.1969108 -18.71308201 40.93316847 -18.72094727 38.66941833 C-18.73816249 35.2125537 -18.78205541 31.75664484 -18.82617188 28.30003357 C-18.83629878 26.10017081 -18.84481489 23.90029992 -18.8515625 21.70042419 C-18.86907059 20.66898788 -18.88657867 19.63755157 -18.90461731 18.57485962 C-18.8869825 12.72256289 -18.56617136 8.99713794 -14.42578125 4.50120544 C-9.68697674 0.65242736 -5.93859276 -0.07386872 0 0 Z " fill="#070707" transform="translate(18.42578125,57.49879455566406)"/>
<path d="M0 0 C0.95184677 0.00142502 1.90369354 0.00285004 2.88438416 0.00431824 C3.96212601 0.00124161 5.03986786 -0.00183502 6.15026855 -0.00500488 C7.31799301 0.00218063 8.48571747 0.00936615 9.68882751 0.01676941 C10.88221237 0.01722763 12.07559723 0.01768585 13.30514526 0.01815796 C15.8312428 0.0211831 18.35733843 0.02907716 20.88340759 0.04142761 C24.76587984 0.05967803 28.64811374 0.0619374 32.53062439 0.06169128 C34.97919418 0.06660646 37.42776233 0.07243478 39.87632751 0.07926941 C41.63095055 0.08093864 41.63095055 0.08093864 43.42102051 0.0826416 C45.03290504 0.09221138 45.03290504 0.09221138 46.67735291 0.10197449 C47.62840408 0.10578629 48.57945526 0.10959808 49.55932617 0.11352539 C51.71617126 0.24723816 51.71617126 0.24723816 52.71617126 1.24723816 C52.8172748 4.19259386 52.85586406 7.11401376 52.84898376 10.05973816 C52.84994049 10.94379333 52.85089722 11.82784851 52.85188293 12.73869324 C52.85256478 14.61165945 52.8507102 16.48462802 52.84654236 18.35758972 C52.84119416 21.23492203 52.8464872 24.11209824 52.85289001 26.98942566 C52.85222923 28.80453017 52.85094807 30.61963459 52.84898376 32.43473816 C52.851008 33.30139099 52.85303223 34.16804382 52.8551178 35.06095886 C52.83112136 41.13228807 52.83112136 41.13228807 51.71617126 42.24723816 C50.03908703 42.35120834 48.35764335 42.38576725 46.67735291 42.39250183 C45.60276321 42.39888168 44.52817352 42.40526154 43.42102051 42.41183472 C41.66639748 42.41350395 41.66639748 42.41350395 39.87632751 42.41520691 C38.68389938 42.41853531 37.49147125 42.42186371 36.26290894 42.42529297 C33.73504524 42.43036732 31.20717481 42.43270114 28.67930603 42.43254089 C24.79890472 42.43472676 20.9187878 42.45287573 17.03843689 42.47184753 C14.58856808 42.47478139 12.1386979 42.47676624 9.68882751 42.47770691 C7.93724083 42.48848518 7.93724083 42.48848518 6.15026855 42.4994812 C4.53365578 42.49486626 4.53365578 42.49486626 2.88438416 42.49015808 C1.456614 42.49229561 1.456614 42.49229561 0 42.49447632 C-2.28382874 42.24723816 -2.28382874 42.24723816 -4.28382874 40.24723816 C-4.48373101 37.40183674 -4.56359849 34.65586032 -4.54945374 31.80973816 C-4.55136719 30.97386169 -4.55328064 30.13798523 -4.55525208 29.27677917 C-4.55661409 27.50814005 -4.5529165 25.73949093 -4.54457092 23.97087097 C-4.53387149 21.25807822 -4.5444655 18.54594772 -4.55726624 15.83317566 C-4.55594464 14.11702836 -4.55338226 12.40088147 -4.54945374 10.68473816 C-4.5535022 9.87013123 -4.55755066 9.05552429 -4.5617218 8.2162323 C-4.49711065 0.4868392 -4.49711065 0.4868392 0 0 Z " fill="#FBFBFB" transform="translate(158.28382873535156,117.75276184082031)"/>
<path d="M0 0 C5.52659523 3.20351585 10.61720507 7.98833395 12.66015625 14.1171875 C12.66015625 17.4171875 12.66015625 20.7171875 12.66015625 24.1171875 C-1.19984375 24.1171875 -15.05984375 24.1171875 -29.33984375 24.1171875 C-29.33984375 11.6171875 -29.33984375 11.6171875 -24.08984375 5.4921875 C-16.91541094 -0.70391357 -9.39677654 -3.54536143 0 0 Z " fill="#FBFBFB" transform="translate(191.33984375,86.8828125)"/>
<path d="M0 0 C2.625 0.375 2.625 0.375 5 1 C5 4.3 5 7.6 5 11 C6.60875 10.01 6.60875 10.01 8.25 9 C11.30980686 7.11704193 12.1335864 7 16 7 C16.33 8.65 16.66 10.3 17 12 C11.25 16 11.25 16 9 16 C11.46941056 18.59937954 14.18060883 20.79020692 17 23 C16.67 24.32 16.34 25.64 16 27 C11.72656908 27.36629408 9.51187196 26.40814077 6 24 C5.90912109 24.95712891 5.90912109 24.95712891 5.81640625 25.93359375 C5.73261719 26.75988281 5.64882813 27.58617188 5.5625 28.4375 C5.48128906 29.26121094 5.40007813 30.08492187 5.31640625 30.93359375 C5 33 5 33 4 34 C1.5 34.125 1.5 34.125 -1 34 C-2.58272601 32.41727399 -2.34735747 30.61965997 -2.5625 28.4375 C-2.64628906 27.61121094 -2.73007812 26.78492187 -2.81640625 25.93359375 C-2.87699219 25.29550781 -2.93757813 24.65742187 -3 24 C-3.721875 24.495 -4.44375 24.99 -5.1875 25.5 C-8.14848659 27.07919285 -9.71253029 27.28178312 -13 27 C-13.33 25.35 -13.66 23.7 -14 22 C-12.20963542 21.0234375 -10.41927083 20.046875 -8.62890625 19.0703125 C-6.83381685 18.08589976 -6.83381685 18.08589976 -6 16 C-6.763125 15.731875 -7.52625 15.46375 -8.3125 15.1875 C-10.91245703 14.03868178 -12.38885423 13.32721056 -14 11 C-13.6875 8.8125 -13.6875 8.8125 -13 7 C-8.6109185 7.51035831 -5.66291938 8.52214277 -2 11 C-2.02320313 10.37351562 -2.04640625 9.74703125 -2.0703125 9.1015625 C-2.08835937 8.28429687 -2.10640625 7.46703125 -2.125 6.625 C-2.14820313 5.81289062 -2.17140625 5.00078125 -2.1953125 4.1640625 C-2 2 -2 2 0 0 Z " fill="#0B0B0B" transform="translate(37,76)"/>
<path d="M0 0 C1.67542976 0.28604898 3.34385343 0.61781233 5 1 C5 4.3 5 7.6 5 11 C6.051875 10.319375 7.10375 9.63875 8.1875 8.9375 C10.90327009 7.3643405 11.70477974 6.97487487 14.9375 7.25 C15.618125 7.4975 16.29875 7.745 17 8 C16.8125 10.3125 16.8125 10.3125 16 13 C11.96551724 16 11.96551724 16 9 16 C9 16.66 9 17.32 9 18 C9.763125 18.28875 10.52625 18.5775 11.3125 18.875 C14 20 14 20 17 22 C16.67 23.65 16.34 25.3 16 27 C11.6109185 26.48964169 8.66291938 25.47785723 5 23 C5 26.3 5 29.6 5 33 C3.34385343 33.38218767 1.67542976 33.71395102 0 34 C-1 33 -1 33 -1.09765625 30.71484375 C-1.08605469 29.79832031 -1.07445313 28.88179687 -1.0625 27.9375 C-1.05347656 27.01839844 -1.04445313 26.09929687 -1.03515625 25.15234375 C-1.02355469 24.44207031 -1.01195313 23.73179688 -1 23 C-2.5778125 23.99 -2.5778125 23.99 -4.1875 25 C-7.26623937 26.7771585 -9.38596328 27.43806506 -13 27 C-13.375 24.75 -13.375 24.75 -13 22 C-10 19.8125 -10 19.8125 -7 18 C-7 17.34 -7 16.68 -7 16 C-7.99 15.38125 -8.98 14.7625 -10 14.125 C-10.99 13.42375 -11.98 12.7225 -13 12 C-13 10.68 -13 9.36 -13 8 C-10.39517051 7.05278928 -8.69325299 6.69777607 -6.109375 7.82421875 C-4.37417127 8.82936725 -2.68359577 9.9106145 -1 11 C-1.01160156 10.28972656 -1.02320312 9.57945313 -1.03515625 8.84765625 C-1.04869141 7.46900391 -1.04869141 7.46900391 -1.0625 6.0625 C-1.07410156 5.14597656 -1.08570312 4.22945313 -1.09765625 3.28515625 C-1 1 -1 1 0 0 Z " fill="#040404" transform="translate(79,76)"/>
<path d="M0 0 C1.67542976 0.28604898 3.34385343 0.61781233 5 1 C5 4.3 5 7.6 5 11 C6.051875 10.319375 7.10375 9.63875 8.1875 8.9375 C10.90327009 7.3643405 11.70477974 6.97487487 14.9375 7.25 C15.618125 7.4975 16.29875 7.745 17 8 C16.8125 10.3125 16.8125 10.3125 16 13 C11.96551724 16 11.96551724 16 9 16 C9 16.66 9 17.32 9 18 C9.763125 18.28875 10.52625 18.5775 11.3125 18.875 C14 20 14 20 17 22 C16.67 23.65 16.34 25.3 16 27 C11.6109185 26.48964169 8.66291938 25.47785723 5 23 C5 26.3 5 29.6 5 33 C3.34385343 33.38218767 1.67542976 33.71395102 0 34 C-1 33 -1 33 -1.09765625 30.71484375 C-1.08605469 29.79832031 -1.07445313 28.88179687 -1.0625 27.9375 C-1.05347656 27.01839844 -1.04445313 26.09929687 -1.03515625 25.15234375 C-1.02355469 24.44207031 -1.01195313 23.73179688 -1 23 C-2.051875 23.680625 -3.10375 24.36125 -4.1875 25.0625 C-6.90327009 26.6356595 -7.70477974 27.02512513 -10.9375 26.75 C-11.618125 26.5025 -12.29875 26.255 -13 26 C-12.8125 23.6875 -12.8125 23.6875 -12 21 C-7.96551724 18 -7.96551724 18 -5 18 C-5 17.34 -5 16.68 -5 16 C-5.94875 15.71125 -6.8975 15.4225 -7.875 15.125 C-11 14 -11 14 -13 12 C-12.625 9.375 -12.625 9.375 -12 7 C-7.6109185 7.51035831 -4.66291938 8.52214277 -1 11 C-1.01160156 10.28972656 -1.02320312 9.57945313 -1.03515625 8.84765625 C-1.04869141 7.46900391 -1.04869141 7.46900391 -1.0625 6.0625 C-1.07410156 5.14597656 -1.08570312 4.22945313 -1.09765625 3.28515625 C-1 1 -1 1 0 0 Z " fill="#030303" transform="translate(121,76)"/>
<path d="M0 0 C3.49406769 1.66762322 4.82670681 2.74006022 7 6 C7.76335259 12.65207257 7.76335259 12.65207257 5.94921875 15.85546875 C4.625 17.5 4.625 17.5 2 20 C1.34 20 0.68 20 0 20 C0 21.98 0 23.96 0 26 C-1.875 27.0625 -1.875 27.0625 -4 28 C-4.66 27.67 -5.32 27.34 -6 27 C-6 24.69 -6 22.38 -6 20 C-6.598125 19.7525 -7.19625 19.505 -7.8125 19.25 C-10.47957184 17.72595895 -11.56182071 16.73254065 -13 14 C-13.64221857 8.94252874 -13.64221857 8.94252874 -13 6 C-8.99198039 1.04271259 -6.32512692 -0.49608839 0 0 Z " fill="#070707" transform="translate(186,125)"/>
<path d="M0 0 C2.625 0.375 2.625 0.375 5 1 C5.625 2.875 5.625 2.875 6 5 C5.34 5.66 4.68 6.32 4 7 C1.375 6.625 1.375 6.625 -1 6 C-1.625 4.125 -1.625 4.125 -2 2 C-1.34 1.34 -0.68 0.68 0 0 Z " fill="#F1F1F1" transform="translate(181,132)"/>
</svg>
